<svg id="Capa_1" enable-background="new 0 0 512 512" height="512" viewBox="0 0 512 512" width="512" xmlns="http://www.w3.org/2000/svg"><path d="m502.018 483.684h-261.036v-42.535h261.036c5.513 0 9.982 4.469 9.982 9.982v22.571c0 5.512-4.469 9.982-9.982 9.982z" fill="#5a5a5a"/><path d="m512 451.133v22.567c0 5.518-4.466 9.984-9.984 9.984h-261.034v-15.771h246.078c4.672 0 8.458-3.785 8.458-8.458v-18.308h6.498c5.518.001 9.984 4.467 9.984 9.986z" fill="#4f4f4f"/><circle cx="228.049" cy="256" fill="#5a5a5a" r="129.713"/><path d="m228.05 27.95c-125.953 0-228.05 102.098-228.05 228.05s102.097 228.05 228.05 228.05c125.943 0 228.05-102.097 228.05-228.05s-102.108-228.05-228.05-228.05zm-91.4 327.619c-19.385 11.186-44.167 4.548-55.363-14.836-11.186-19.385-4.549-44.167 14.836-55.363 19.385-11.186 44.167-4.549 55.363 14.836 11.186 19.385 4.549 44.168-14.836 55.363zm14.836-143.775c-11.196 19.385-35.978 26.022-55.363 14.836-19.385-11.196-26.022-35.978-14.836-55.363 11.196-19.385 35.978-26.022 55.363-14.836 19.385 11.195 26.022 35.978 14.836 55.363zm76.564 213.672c-22.381 0-40.527-18.145-40.527-40.527 0-22.381 18.145-40.526 40.527-40.526s40.527 18.145 40.527 40.526c-.001 22.382-18.146 40.527-40.527 40.527zm0-257.879c-22.381 0-40.527-18.145-40.527-40.526s18.145-40.527 40.527-40.527 40.527 18.145 40.527 40.527-18.146 40.526-40.527 40.526zm146.762 173.146c-11.196 19.385-35.978 26.022-55.363 14.836-19.385-11.196-26.022-35.978-14.836-55.363 11.196-19.385 35.978-26.022 55.363-14.836 19.384 11.196 26.022 35.978 14.836 55.363zm-14.836-114.103c-19.385 11.186-44.167 4.549-55.363-14.836-11.186-19.385-4.549-44.167 14.836-55.363 19.385-11.186 44.167-4.548 55.363 14.836 11.186 19.385 4.548 44.167-14.836 55.363z" fill="#9c9c9c"/><path d="m456.099 256c0 125.952-102.107 228.05-228.05 228.05-64.04 0-121.921-26.393-163.336-68.901 38.955 31.039 88.296 49.584 141.98 49.584 125.943 0 228.05-102.107 228.05-228.05 0-61.902-24.656-118.036-64.694-159.129 52.434 41.767 86.05 106.178 86.05 178.446z" fill="#8e8e8e"/><circle cx="228.05" cy="256" fill="#5a5a5a" r="32.91"/><g fill="#3f3f3f"><path d="m145.789 121.011c-2.592 0-5.113-1.345-6.502-3.751l-6.101-10.567c-2.071-3.587-.842-8.174 2.745-10.245 3.586-2.071 8.174-.843 10.245 2.745l6.101 10.567c2.071 3.587.842 8.174-2.745 10.245-1.181.682-2.47 1.006-3.743 1.006z"/><path d="m316.424 416.56c-2.592 0-5.113-1.345-6.502-3.751l-6.101-10.567c-2.071-3.587-.842-8.174 2.745-10.245s8.173-.843 10.245 2.745l6.101 10.567c2.071 3.587.842 8.174-2.745 10.245-1.181.681-2.471 1.006-3.743 1.006z"/><path d="m63.515 263.5h-12.202c-4.142 0-7.5-3.358-7.5-7.5s3.358-7.5 7.5-7.5h12.202c4.142 0 7.5 3.358 7.5 7.5s-3.358 7.5-7.5 7.5z"/><path d="m404.785 263.5h-12.202c-4.142 0-7.5-3.358-7.5-7.5s3.358-7.5 7.5-7.5h12.202c4.142 0 7.5 3.358 7.5 7.5s-3.358 7.5-7.5 7.5z"/><path d="m139.674 416.56c-1.272 0-2.562-.324-3.743-1.006-3.587-2.071-4.816-6.658-2.745-10.245l6.101-10.567c2.071-3.587 6.658-4.817 10.245-2.745 3.587 2.071 4.816 6.658 2.745 10.245l-6.101 10.567c-1.389 2.405-3.91 3.751-6.502 3.751z"/><path d="m310.309 121.011c-1.272 0-2.562-.324-3.743-1.006-3.587-2.071-4.816-6.658-2.745-10.245l6.101-10.567c2.071-3.587 6.657-4.817 10.245-2.745 3.587 2.071 4.816 6.658 2.745 10.245l-6.101 10.567c-1.389 2.405-3.91 3.751-6.502 3.751z"/></g></svg>